<svg xmlns="http://www.w3.org/2000/svg" width="24" height="24" viewBox="0 0 24 24" fill="none" stroke="currentColor" stroke-width="1.7" stroke-linecap="round" stroke-linejoin="round">
  <path d="M14.3 3H7.1a3.3 2.75 0 0 0-3.3 2.75v12.5A3.3 2.75 0 0 0 7.1 21h9.45a3.3 2.75 0 0 0 3.3-2.75V8.75L14.3 3Z"/>
  <path d="M14.3 3.25V8.75h5.45"/>
  <path fill="currentColor" stroke="none" transform="matrix(0.62 0 0 0.62 5.85 7.65)" d="M8.3125 8.93583297729492L8.3125 11.4983329772949 10.4375 11.4983329772949 10.4375 8.93583297729492 8.3125 8.93583297729492z M6.8125 7.68583297729492L11.9375 7.68583297729492C11.8958330154419 8.10249996185303 11.875 8.70666694641113 11.875 9.49833297729492L11.875 10.6858329772949C11.875 11.7229423522949 11.8958330154419 12.7229423522949 11.9375 13.6858329772949L10.4375 13.6858329772949 10.4375 12.8108329772949 8.3125 12.8108329772949 8.3125 13.9358329772949 6.8125 13.9358329772949C6.85416650772095 13.102499961853 6.875 12.1441669464111 6.875 11.0608329772949L6.875 9.56083297729492C6.875 8.94559860229492 6.85416650772095 8.32059860229492 6.8125 7.68583297729492z M0.8125 6.06083297729492C1.51171875 6.14416694641113 2.05338525772095 6.18583297729492 2.4375 6.18583297729492L4.5 6.18583297729492C4.45833301544189 7.07645797729492 4.4375 7.99312496185303 4.4375 8.93583297729492L4.4375 12.9983329772949C4.61979150772095 12.750937461853 5.10384082794189 12.2717704772949 5.8896484375 11.5608329772949 6.07779932022095 11.9879169464111 6.32291650772095 12.3970966339111 6.625 12.7883720397949 5.92122364044189 13.3931894302368 5.34114551544189 13.923789024353 4.884765625 14.3801689147949 4.42838525772095 14.8365488052368 3.8974609375 15.3551034927368 3.2919921875 15.9358329772949 2.9111328125 15.467734336853 2.58463525772095 15.058554649353 2.3125 14.7082939147949 2.52734375 14.4166269302368 2.6748046875 14.170859336853 2.7548828125 13.9709892272949 2.8349609375 13.7711191177368 2.875 13.4885673522949 2.875 13.1233329772949L2.875 7.49833297729492 2.4375 7.49833297729492C2.318359375 7.49833297729492 1.77669262886047 7.51916646957397 0.8125 7.56083297729492L0.8125 6.06083297729492z M6.125 4.93583297729492C7.01692676544189 5.01916694641113 7.74609375 5.06083297729492 8.3125 5.06083297729492L11.3125 5.06083297729492C11.736328125 5.06083297729492 12.2779941558838 5.01916694641113 12.9375 4.93583297729492L12.9375 6.43583297729492C12.3398427963257 6.39416694641113 11.6731758117676 6.37333297729492 10.9375 6.37333297729492L8.1875 6.37333297729492C7.73502540588379 6.37333297729492 7.04752540588379 6.39416694641113 6.125 6.43583297729492L6.125 4.93583297729492z M6.125 2.24833297729492C6.783203125 2.33166694641113 7.658203125 2.37333297729492 8.75 2.37333297729492L15.3125 2.37333297729492C15.2708330154419 2.98140621185303 15.25 3.81473922729492 15.25 4.87333297729492L15.25 14.4358329772949C15.25 15.184531211853 14.9661455154419 15.6837167739868 14.3984375 15.9333915710449 13.8307285308838 16.1830654144287 13.1070957183838 16.3505458831787 12.2275390625 16.4358329772949 12.1253252029419 15.9885673522949 11.9036455154419 15.4469003677368 11.5625 14.8108329772949 12.5266923904419 14.8108329772949 13.1219072341919 14.7585868835449 13.34814453125 14.6540946960449 13.5743808746338 14.5496025085449 13.6874990463257 14.2476816177368 13.6875 13.7483329772949L13.6875 3.68583297729492 8.6875 3.68583297729492C7.73697900772095 3.68583297729492 6.8828125 3.70666694641113 6.125 3.74833297729492L6.125 2.24833297729492z M3.357421875 1.37333297729492C4.201171875 2.65262985229492 4.74869775772095 3.55464839935303 5 4.07938766479492 4.576171875 4.33459663391113 4.13932275772095 4.62007808685303 3.689453125 4.93583297729492 2.99348950386047 3.62137985229492 2.47200512886047 2.71968746185303 2.125 2.23075485229492 2.53645825386047 1.97750091552734 2.947265625 1.69169330596924 3.357421875 1.37333297729492z"/>
</svg>
